<svg xmlns="http://www.w3.org/2000/svg" xmlns:xlink="http://www.w3.org/1999/xlink" viewBox="0 0 500 500"><defs><linearGradient id="linear-gradient" x1="438.11" y1="361.42" x2="525.91" y2="699.52" gradientUnits="userSpaceOnUse"><stop offset="0" stop-color="#1ae5ff"/><stop offset="0.26" stop-color="#64e8f9"/><stop offset="0.7" stop-color="#eaeeee"/></linearGradient><linearGradient id="linear-gradient-2" x1="28.32" y1="440.34" x2="70.93" y2="604.44" xlink:href="#linear-gradient"/><linearGradient id="linear-gradient-3" x1="-139.89" y1="377" x2="-17.4" y2="377" gradientTransform="matrix(-1, 0, 0, 1, 200.82, 0)" gradientUnits="userSpaceOnUse"><stop offset="0" stop-color="#5155d4"/><stop offset="1" stop-color="#45f7ff"/></linearGradient><linearGradient id="linear-gradient-4" x1="234.41" y1="116.69" x2="365.13" y2="116.69" gradientUnits="userSpaceOnUse"><stop offset="0" stop-color="#7f5eff"/><stop offset="0.24" stop-color="#8665ff"/><stop offset="0.6" stop-color="#9978ff"/><stop offset="0.94" stop-color="#b391ff"/></linearGradient><linearGradient id="linear-gradient-5" x1="357.32" y1="395.83" x2="357.32" y2="171.14" gradientUnits="userSpaceOnUse"><stop offset="0" stop-color="#5745ff"/><stop offset="0.19" stop-color="#5e49ff"/><stop offset="0.46" stop-color="#7253ff"/><stop offset="0.78" stop-color="#9164ff"/><stop offset="0.94" stop-color="#a46eff"/></linearGradient><linearGradient id="linear-gradient-6" x1="331.84" y1="459.76" x2="281.93" y2="173.2" xlink:href="#linear-gradient-4"/><linearGradient id="linear-gradient-7" x1="292.51" y1="141.32" x2="292.51" y2="157.66" xlink:href="#linear-gradient-4"/><linearGradient id="linear-gradient-8" x1="291.91" y1="378.62" x2="291.91" y2="310.27" gradientTransform="translate(208.34 -101.18) rotate(30.16)" gradientUnits="userSpaceOnUse"><stop offset="0" stop-color="#9a79ff"/><stop offset="0.94" stop-color="#b391ff"/></linearGradient><linearGradient id="linear-gradient-9" x1="276.52" y1="151.99" x2="305.56" y2="211.37" gradientUnits="userSpaceOnUse"><stop offset="0" stop-color="#9a79ff"/><stop offset="0.34" stop-color="#ba76e8"/><stop offset="0.94" stop-color="#fb6fb9"/></linearGradient><linearGradient id="linear-gradient-10" x1="287.52" y1="246.96" x2="287.52" y2="308.97" gradientTransform="matrix(1, 0, 0, 1, 0, 0)" xlink:href="#linear-gradient-3"/><linearGradient id="linear-gradient-11" x1="206.41" y1="415.23" x2="272.43" y2="415.23" gradientTransform="matrix(1, 0, 0, 1, 0, 0)" xlink:href="#linear-gradient-3"/><linearGradient id="linear-gradient-12" x1="230.46" y1="348.31" x2="222.06" y2="413.68" gradientUnits="userSpaceOnUse"><stop offset="0" stop-color="#6851f5"/><stop offset="1" stop-color="#00cfff"/></linearGradient><linearGradient id="linear-gradient-13" x1="226.13" y1="379.98" x2="247.55" y2="379.98" xlink:href="#linear-gradient-12"/><linearGradient id="linear-gradient-14" x1="102.34" y1="382.73" x2="168.36" y2="382.73" gradientTransform="matrix(1, 0, 0, 1, 0, 0)" xlink:href="#linear-gradient-3"/><linearGradient id="linear-gradient-15" x1="623.59" y1="321.09" x2="637.39" y2="247.5" gradientTransform="matrix(-1, 0, 0, 1, 785.2, 0)" xlink:href="#linear-gradient-4"/><linearGradient id="linear-gradient-16" x1="644.91" y1="312.72" x2="672.86" y2="257.17" gradientTransform="matrix(-1, 0, 0, 1, 785.2, 0)" xlink:href="#linear-gradient-4"/><linearGradient id="linear-gradient-17" x1="641.71" y1="302.85" x2="666.96" y2="302.85" gradientTransform="matrix(-1, 0, 0, 1, 785.2, 0)" gradientUnits="userSpaceOnUse"><stop offset="0" stop-color="#ff4f00"/><stop offset="1" stop-color="#ff3d9d"/></linearGradient><linearGradient id="linear-gradient-18" x1="652.91" y1="260.21" x2="653.62" y2="305.85" gradientTransform="matrix(-1, 0, 0, 1, 785.2, 0)" xlink:href="#linear-gradient-4"/></defs><title>494642-PHERZJ-463</title><g style="isolation:isolate"><g id="BACKGROUND"><rect width="500" height="500" fill="#fff"/><g opacity="0.31"><path d="M500,500V311.92c-27,5.59-52.61,15.32-75.56,31.12-19,13.09-36.37,32.12-37.78,55.16-1.34,21.85,11.84,41.87,15.45,63.47,2.19,13.12.84,25.89-2.75,38.33Z" fill="url(#linear-gradient)"/><path d="M51.89,456.29A193.26,193.26,0,0,0,0,431.31V500H87.62C82.28,482.08,67.66,467.14,51.89,456.29Z" fill="url(#linear-gradient-2)"/></g></g><g id="OBJECTS"><g opacity="0.32" style="mix-blend-mode:multiply"><path d="M220.23,353.43c-2.66,1.53-2.67,4,0,5.55l88.24,51.28a10.51,10.51,0,0,0,9.58,0l20.69-9.68c2.65-1.54,2.67-4,0-5.55L250.5,343.74a10.57,10.57,0,0,0-9.58,0Z" fill="url(#linear-gradient-3)"/></g><path d="M195.93,139.14v2.2a1.69,1.69,0,0,0,2.53,1.46l10.39-6a1.69,1.69,0,0,0,.84-1.47v-2.2a1.68,1.68,0,0,0-2.53-1.45l-10.39,6A1.72,1.72,0,0,0,195.93,139.14Z" fill="#1ae5ff"/><path d="M163.06,169.06v2.21a1.69,1.69,0,0,0,2.53,1.46l43.29-25a1.69,1.69,0,0,0,.84-1.46v-2.21a1.69,1.69,0,0,0-2.53-1.46l-43.29,25A1.68,1.68,0,0,0,163.06,169.06Z" fill="#1ae5ff"/><g opacity="0.53"><path d="M181,180.69v2.21a1.69,1.69,0,0,0,2.53,1.46L209,169.67a1.67,1.67,0,0,0,.84-1.47V166a1.69,1.69,0,0,0-2.53-1.45l-25.44,14.69A1.68,1.68,0,0,0,181,180.69Z" fill="#1ae5ff"/></g><path d="M169.81,176.16v2.2a1.69,1.69,0,0,0,2.53,1.46l36.58-21.12a1.69,1.69,0,0,0,.84-1.46V155a1.69,1.69,0,0,0-2.53-1.46l-36.58,21.12A1.67,1.67,0,0,0,169.81,176.16Z" fill="#1ae5ff"/><g opacity="0.37"><path d="M396.16,172.5A1.87,1.87,0,0,1,397,174l0,15c0,.55-.39.77-.86.5l-19-11a1.91,1.91,0,0,1-.86-1.49l.05-15c0-.55.39-.77.86-.49Z" fill="#8ed2ff"/></g><g opacity="0.47"><path d="M403.14,199.19a1.88,1.88,0,0,1,.86,1.49l0,15c0,.55-.39.77-.87.49l-19-11a1.89,1.89,0,0,1-.86-1.49l0-15c0-.55.39-.77.87-.5Z" fill="#7974f5"/></g><g opacity="0.37"><path d="M210,213.35a1.22,1.22,0,0,1,.56,1l0,9.69c0,.36-.25.5-.56.32l-12.27-7.08a1.23,1.23,0,0,1-.56-1l0-9.69c0-.35.25-.5.56-.32Z" fill="#8ed2ff"/></g><g opacity="0.47"><path d="M214.49,230.59a1.22,1.22,0,0,1,.55,1l0,9.69c0,.36-.26.5-.56.32l-12.27-7.08a1.23,1.23,0,0,1-.56-1l0-9.7c0-.35.25-.49.56-.32Z" fill="#7974f5"/></g><path d="M339.75,131l.21.17c.58.48,1.16,1,1.73,1.51l.2.19c.57.54,1.13,1.1,1.69,1.68l.14.15c.58.63,1.16,1.28,1.71,1.95l0,0c.57.69,1.13,1.4,1.66,2.12h0c.49.67,1,1.35,1.42,2,.29.43.55.87.83,1.31s.45.72.67,1.09l.3.53c.35.63.7,1.26,1,1.9a2.12,2.12,0,0,1,.11.21c.39.78.76,1.56,1.11,2.36a.61.61,0,0,1,.05.12,37.88,37.88,0,0,1,3.41,15l9.1-5.28a37.05,37.05,0,0,0-2.72-13.3h0c-.12-.33-.26-.66-.39-1s-.21-.47-.31-.71l-.05-.12-.06-.14c-.14-.33-.29-.65-.45-1s-.34-.72-.52-1.07a1.3,1.3,0,0,0-.08-.17l-.11-.21-.44-.85c-.19-.35-.39-.7-.59-1l-.29-.52-.12-.21c-.18-.31-.37-.6-.56-.89-.27-.44-.54-.88-.82-1.31a2.39,2.39,0,0,0-.13-.21q-.63-.93-1.29-1.83h0c-.29-.41-.6-.8-.9-1.19s-.5-.63-.76-.94l0,0h0l-.78-.92c-.26-.3-.53-.59-.79-.88l-.14-.14-.14-.15-.56-.58-.85-.85-.27-.25-.21-.19-.42-.39-.9-.79-.41-.33-.2-.16-.3-.25-.89-.68-.66-.47-.11-.08-.12-.08c-.28-.2-.57-.39-.86-.57l-.86-.53-.2-.11L258,72.8l-.64-.36L256.5,72l-.53-.25-.13-.06-.16-.08-.82-.34c-.27-.11-.54-.22-.82-.31l-.14,0-.12,0-.55-.18-.84-.23-.4-.09-.18,0-.26-.06-.89-.14-.53-.06-.19,0h-.18c-.33,0-.64,0-1,0l-.41,0-.32,0h-.32c-.4,0-.79.1-1.18.17h0l-.25.07a10.8,10.8,0,0,0-1.15.31l-.13.06-.18.07a9.67,9.67,0,0,0-1.34.64l-9.09,5.28a10.13,10.13,0,0,1,1.33-.63l.19-.08a10.51,10.51,0,0,1,1.28-.37l.24-.06a12.79,12.79,0,0,1,1.53-.2h.31a13.45,13.45,0,0,1,1.55,0l.19,0a14.58,14.58,0,0,1,1.68.26l.18,0a16.07,16.07,0,0,1,1.79.5l.13,0c.63.22,1.27.48,1.93.77l.13.07c.66.3,1.33.65,2,1l86.87,50.15c.69.4,1.37.83,2,1.3l.12.08C338.53,130.06,339.15,130.52,339.75,131Z" fill="url(#linear-gradient-4)"/><path d="M365.12,157.17c0-.33,0-.66-.05-1s-.05-.65-.08-1-.07-.66-.11-1-.09-.68-.14-1l-.18-1c-.07-.36-.14-.71-.22-1.06s-.16-.71-.24-1.07-.19-.72-.29-1.08-.2-.72-.31-1.07-.22-.71-.34-1.06l-.36-1c-.12-.34-.25-.67-.38-1l-9.09,5.29c.13.33.25.66.37,1s.25.69.36,1,.23.7.34,1.05.21.72.31,1.08.2.72.29,1.08.17.71.25,1.06.15.71.21,1.06.13.69.18,1,.1.69.14,1,.08.67.12,1,.05.66.07,1,0,.66,0,1,0,.61,0,.91l-.59,208.43c0,.78,0,1.52-.1,2.23a1.36,1.36,0,0,0,0,.2c-.07.65-.16,1.29-.28,1.89,0,.08,0,.17-.05.25a17.4,17.4,0,0,1-.44,1.69c0,.1-.06.2-.1.3-.17.5-.35,1-.56,1.45a1.11,1.11,0,0,0-.07.16,14.05,14.05,0,0,1-.82,1.48l-.13.18a11.59,11.59,0,0,1-.78,1c-.1.12-.21.24-.32.35a8.85,8.85,0,0,1-.76.74l-.33.28a8.86,8.86,0,0,1-1.18.82l9.1-5.29a11.74,11.74,0,0,0,1.18-.81l.33-.29a10.59,10.59,0,0,0,.76-.74l.32-.34a11.74,11.74,0,0,0,.78-1l.13-.18,0,0a14.22,14.22,0,0,0,.77-1.39.08.08,0,0,1,0-.05l.06-.16c.14-.31.28-.62.41-.95.06-.16.11-.33.16-.5s.07-.2.1-.3l.09-.27c.1-.34.19-.68.27-1,0-.12.05-.25.08-.38a2,2,0,0,1,.05-.24c0-.13.05-.25.07-.37.06-.32.1-.65.15-1s0-.37.05-.55a1.23,1.23,0,0,0,0-.19l0-.23.06-1c0-.33,0-.65,0-1v-.05l.59-208.43C365.13,157.78,365.13,157.48,365.12,157.17Z" fill="url(#linear-gradient-5)"/><path d="M335.75,128.24c11.23,6.49,20.32,22.22,20.28,35.13l-.59,208.43c0,12.91-9.18,18.12-20.41,11.64l-86.87-50.16c-11.23-6.48-20.32-22.22-20.28-35.13l.59-208.43c0-12.91,9.18-18.11,20.41-11.63Z" fill="url(#linear-gradient-6)"/><path d="M303.72,129.79a5.38,5.38,0,0,1,2.45,4.25c0,1.58-1.11,2.21-2.47,1.42l-22.4-12.93a5.44,5.44,0,0,1-2.46-4.27c0-1.56,1.12-2.19,2.48-1.4Z" fill="url(#linear-gradient-7)"/><ellipse cx="291.91" cy="335.98" rx="5.42" ry="9.36" transform="translate(-129.29 192.16) rotate(-30.16)" fill="url(#linear-gradient-8)"/><path d="M347.11,173.2a4.49,4.49,0,0,1,2,3.53l-.49,174.15c0,1.3-.92,1.83-2.05,1.17L237.31,289a4.49,4.49,0,0,1-2-3.53l.49-174.16c0-1.29.93-1.82,2.05-1.16Z" fill="#f9fbfc"/><path d="M360.8,233.62h0a1.29,1.29,0,0,1-1.29-1.29V193.6a1.29,1.29,0,0,1,1.29-1.29h0a1.29,1.29,0,0,1,1.29,1.29v38.73A1.29,1.29,0,0,1,360.8,233.62Z" fill="#f9fbfc"/><path d="M360.8,281.81h0a1.29,1.29,0,0,1-1.29-1.29V241.79a1.29,1.29,0,0,1,1.29-1.29h0a1.29,1.29,0,0,1,1.29,1.29v38.73A1.29,1.29,0,0,1,360.8,281.81Z" fill="#f9fbfc"/><path d="M360.8,341h0a1.29,1.29,0,0,1-1.29-1.29V319.67a1.29,1.29,0,0,1,1.29-1.29h0a1.29,1.29,0,0,1,1.29,1.29v20.07A1.29,1.29,0,0,1,360.8,341Z" fill="#113c7a"/><path d="M291.19,185.39c5.59,3.23,10.12,11,10.18,17.47V203c-.24.09-4.7,1.87-10.37-1.29l-.2-.11c-4.43-2.56-8.06-7.64-9.36-9.6a9.17,9.17,0,0,1-.5-.8C281,184.74,285.54,182.13,291.19,185.39Z" fill="#fff"/><path d="M337.2,241.57a5.12,5.12,0,0,1,2.33,4l0,9.82c0,1.49-1.05,2.09-2.34,1.34L247.33,204.9a5.14,5.14,0,0,1-2.33-4l0-9.82c0-1.48,1.05-2.08,2.35-1.33Z" fill="#cfe3ff"/><path d="M306.54,183.13a30,30,0,0,1,1.11,5.22,24.36,24.36,0,0,1,.19,3.05c0,.3,0,.6,0,.89a.66.66,0,0,0,0,.14c0,.27,0,.55-.06.81,0,.06,0,.11,0,.16,0,.27-.06.53-.1.79s-.1.6-.14.85-.13.56-.19.8l0,.12c-.06.23-.13.46-.2.68a.56.56,0,0,1,0,.12c-.07.23-.15.45-.23.66s-.2.47-.29.66-.23.47-.33.66l-.06.11c-.1.18-.21.36-.32.53l-.06.09c-.12.18-.24.35-.37.52s-.27.33-.4.49l-.06.06c-.13.15-.27.29-.41.43l-.08.07a5.34,5.34,0,0,1-.44.39l-.07,0c-.15.12-.3.24-.45.34s-.36.24-.53.34l-.1.05-.5.26-.1.05-.54.22a3.19,3.19,0,0,1-.34.11c-.05-6.44-4.58-14.23-10.17-17.46s-10.24-.65-10.25,5.83c0,0,.16.27.46.73l-.4-.55-.59-.88-.09-.14c-.18-.27-.36-.55-.53-.83l-.11-.18-.52-.87c-.18-.31-.34-.6-.5-.9l-.09-.16-.46-.88c0-.06-.05-.11-.08-.16-.14-.29-.28-.57-.41-.86s-.32-.68-.46-1a1.42,1.42,0,0,0-.08-.18c-.13-.31-.26-.61-.38-.92s-.27-.68-.38-1c0,0,0-.1-.05-.14l-.33-.92-.06-.19c-.2-.62-.39-1.25-.56-1.88a1.05,1.05,0,0,1-.05-.19c-.08-.3-.16-.6-.23-.91,0-.05,0-.11,0-.16-.06-.29-.13-.58-.18-.87s-.14-.71-.19-1l0-.2c0-.3-.09-.61-.12-.91s-.08-.67-.1-.95c0-.05,0-.1,0-.16,0-.29,0-.59-.05-.88a1.28,1.28,0,0,0,0-.19c0-.3,0-.6,0-.89a19.53,19.53,0,0,1,.2-2.83,13.79,13.79,0,0,1,1.14-3.91c.1-.23.22-.45.33-.66,2.73-4.9,8.49-6,15.15-2.19,6,3.45,11.21,10.07,14.17,17.19.2.47.38.94.56,1.41C306.1,181.74,306.33,182.43,306.54,183.13Zm-15.12.49c3.45,2,6.24.39,6.26-3.56a13.69,13.69,0,0,0-6.21-10.76c-3.44-2-6.24-.4-6.26,3.56a13.74,13.74,0,0,0,6.21,10.76" fill="url(#linear-gradient-9)"/><path d="M306.54,183.13a30,30,0,0,1,1.11,5.22,24.36,24.36,0,0,1,.19,3.05c0,.3,0,.6,0,.89a.66.66,0,0,0,0,.14c0,.27,0,.55-.06.81,0,.06,0,.11,0,.16,0,.27-.06.53-.1.79s-.1.6-.14.85-.13.56-.19.8l0,.12c-.06.23-.13.46-.2.68a.56.56,0,0,1,0,.12c-.07.23-.15.45-.23.66s-.2.47-.29.66-.23.47-.33.66l-.06.11c-.1.18-.21.36-.32.53l-.06.09c-.12.18-.24.35-.37.52s-.27.33-.4.49l-.06.06c-.13.15-.27.29-.41.43l-.08.07a5.34,5.34,0,0,1-.44.39l-.07,0c-.15.12-.3.24-.45.34s-.36.24-.53.34l-.1.05-.5.26-.1.05-.54.22a3.19,3.19,0,0,1-.34.11c-.05-6.44-4.58-14.23-10.17-17.46s-10.24-.65-10.25,5.83c0,0,.16.27.46.73l-.4-.55-.59-.88-.09-.14c-.18-.27-.36-.55-.53-.83l-.11-.18-.52-.87c-.18-.31-.34-.6-.5-.9l-.09-.16-.46-.88c0-.06-.05-.11-.08-.16-.14-.29-.28-.57-.41-.86s-.32-.68-.46-1a1.42,1.42,0,0,0-.08-.18c-.13-.31-.26-.61-.38-.92s-.27-.68-.38-1c0,0,0-.1-.05-.14l-.33-.92-.06-.19c-.2-.62-.39-1.25-.56-1.88a1.05,1.05,0,0,1-.05-.19c-.08-.3-.16-.6-.23-.91,0-.05,0-.11,0-.16-.06-.29-.13-.58-.18-.87s-.14-.71-.19-1l0-.2c0-.3-.09-.61-.12-.91s-.08-.67-.1-.95c0-.05,0-.1,0-.16,0-.29,0-.59-.05-.88a1.28,1.28,0,0,0,0-.19c0-.3,0-.6,0-.89a19.53,19.53,0,0,1,.2-2.83,13.79,13.79,0,0,1,1.14-3.91c.1-.23.22-.45.33-.66,2.73-4.9,8.49-6,15.15-2.19,6,3.45,11.21,10.07,14.17,17.19.2.47.38.94.56,1.41C306.1,181.74,306.33,182.43,306.54,183.13Zm-15.12.49c3.45,2,6.24.39,6.26-3.56a13.69,13.69,0,0,0-6.21-10.76c-3.44-2-6.24-.4-6.26,3.56a13.74,13.74,0,0,0,6.21,10.76" fill="none"/><path d="M291.47,169.3a13.69,13.69,0,0,1,6.21,10.76c0,3.95-2.81,5.55-6.26,3.56a13.74,13.74,0,0,1-6.21-10.76C285.23,168.9,288,167.32,291.47,169.3Z" fill="#fff"/><path d="M337.14,262.94a5.14,5.14,0,0,1,2.33,4l0,9.82c0,1.49-1.05,2.08-2.34,1.33l-89.83-51.86a5.09,5.09,0,0,1-2.33-4l0-9.82c0-1.49,1.05-2.08,2.34-1.34Z" fill="#cfe3ff"/><path d="M302.08,278.86a12.19,12.19,0,0,1,5.52,9.57v2.26c0,3.52-2.5,4.94-5.57,3.17l-29-16.77a12.2,12.2,0,0,1-5.53-9.58v-2.26c0-3.51,2.51-4.94,5.57-3.17Z" fill="url(#linear-gradient-10)"/><ellipse cx="239.42" cy="415.23" rx="33.01" ry="19.62" opacity="0.32" fill="url(#linear-gradient-11)" style="mix-blend-mode:multiply"/><path d="M272.94,281.93a15.33,15.33,0,0,0,2.46-2c.49-.66,1.15-4.44.49-4.6s-1.15,2.46-1.15,2.46-.16-6.9-1-7.88-3.45,3.94-3.62,4.76-.82,4.27-.82,4.27S270.31,281.93,272.94,281.93Z" fill="#ff9d6f"/><path d="M222.72,301.74s-5.16,5.17-1.54,11.41,28.26-9.2,30.89-11.5S272,283.9,272.94,281.93s-1.15-3.94-3.78-3.61S256,289.82,247.8,295.08C247.8,295.08,228.2,299.54,222.72,301.74Z" fill="#113c7a"/><path d="M225.74,411s-.43,3.11.14,4.39a3.18,3.18,0,0,0,4.38.84,45.81,45.81,0,0,0,4.24-4s4.53-2.41,4.95-3.68-1.13-2.4-2.4-2.12-5,2.54-6.65,2.54S226.3,409.45,225.74,411Z" fill="#113c7a"/><path d="M221.07,344.79s4,65.31,4.45,67.2,5.63,3,6.58,0c.61-1.91,2.1-62.34,2.1-62.34Z" fill="url(#linear-gradient-12)"/><path d="M238.82,414.89a1,1,0,0,0-.35.76c0,.9,0,2.9.54,3.68a3.82,3.82,0,0,0,4.92.92c1.83-1,7.47-5.21,8.61-6.14a3.38,3.38,0,0,0,1.14-1.81,1,1,0,0,0-.58-1.18,4.9,4.9,0,0,0-3.39-.39c-1.86.63-4.21,2.65-6.76,2.54A6.24,6.24,0,0,0,238.82,414.89Z" fill="#113c7a"/><path d="M247.55,345.5c-.28-2.72-3.53-3.6-6.52-2.68-5.71-.3-14.55-.06-14.85,4.37-.46,6.56,2.61,11.24,5.58,14.42,2.19,2.35,3.65,6.85,4.26,9.05.52,17.32,1.67,41.74,2.38,44.08,1.16,3.76,6.84,3.6,7.1-.07C246.65,402.28,247.55,345.5,247.55,345.5Z" fill="url(#linear-gradient-13)"/><path d="M247.57,347.54c-.67,3.35-10.22,5-15.81,4.13s-11.6-3.63-11.4-10.11c0,0,1.06-15.48.64-18.23a77.21,77.21,0,0,1-1.49-12.73,15,15,0,0,1,3.21-8.86s3.12-3.57,12.95-1.56c0,0,8,1.74,11.7,7.66,0,0,2.54,6.51,1.69,20.08S247.57,347.54,247.57,347.54Z" fill="#113c7a"/><path d="M228,293s.85,4.95,0,7.21c-.14,1.13,4.8,5,9.19,4,2.54-.57,2.4-1.84,2.4-1.84s-2.12-3.54-1.84-6.93S231,292.29,228,293Z" fill="#ff7c40"/><path d="M244.54,283a11.67,11.67,0,1,1-11.66-11.66A11.66,11.66,0,0,1,244.54,283Z" fill="#ff9d6f"/><path d="M244.54,283.81s.14,11.68-2.4,14-6.46-2.21-12.7-3.67c-6.25-1.61,5.06-13.76,5.06-13.76Z" fill="#ff9d6f"/><path d="M270.43,301.07s-1.11-4.56-.74-4.93,1.85,1.61,1.85,1.61.74-4.69,1.35-5.18,3.09,2,3.45,3.33-1.47,6.78-2.21,6.9S270.8,303.29,270.43,301.07Z" fill="#ff9d6f"/><path d="M243.94,306.5s-5.18,2.46-3,8.87,18.73,8.87,20.7,6.9,10.6-12.08,13.06-19.72c0,0-1-3-4.93-1.72,0,0-9.36,11.83-10.84,13.06S246.4,306,243.94,306.5Z" fill="#113c7a"/><path d="M222.89,274.14a14.94,14.94,0,0,1,9.9-4.85c6.26-.4,9.29,1.62,11.71,1.42a3.66,3.66,0,0,1,3.84,4.85c-.81,3-2.63,6.05-6.67,6.05s-5-.6-5-.6,3.23,1.41,3.63,4.24a63.39,63.39,0,0,1,.4,7.07h-1s-.8-4.65-2.42-4.65-1.61,5.05-.2,5.86l1.41.8s-2.71,5-4.18,5.24-6.32-3.42-6.32-3.42-8.08-3.83-8.88-10.09S222.89,274.14,222.89,274.14Z" fill="#843837"/><ellipse cx="135.35" cy="382.73" rx="33.01" ry="19.62" opacity="0.32" fill="url(#linear-gradient-14)" style="mix-blend-mode:multiply"/><path d="M118.63,329.08s2.22,14.05,4.06,21.81c0,0,.37,12.94.74,17.37s1.48,14.05,1.48,14.05a2.66,2.66,0,0,0,2.77.37s1.85-27.54,2.22-32,1.67-24.4,1.67-24.4S127.31,322.42,118.63,329.08Z" fill="#f5b697"/><path d="M132.49,323.53s2.22,14.05,4.07,21.81c0,0,.37,12.94.74,17.38s1.47,14,1.47,14a2.67,2.67,0,0,0,2.78.37s1.85-27.54,2.22-32,.55-24.21.55-24.21S141.18,316.88,132.49,323.53Z" fill="#f5b697"/><path d="M121.4,310.1s-5.24,5.73-2.22,25.14a88.2,88.2,0,0,0,2,9.92,31.55,31.55,0,0,0,15-2c8.13-3.15,8.32-4.81,8.32-4.81S144.87,314,143,307.7,121.4,310.1,121.4,310.1Z" fill="#113c7a"/><path d="M141.64,375.84a2.88,2.88,0,0,0,1.29,2.5c1.48,1.11,4.26,3.14,4.72,4.34,0,.93-3.51-.09-5.09-.92a11.67,11.67,0,0,1-3.05-2.77l.1.83a1.57,1.57,0,0,1-1-.46c-.46-.47.09-3.33.09-3.33Z" fill="#5167b0"/><path d="M127.78,382.22a2.85,2.85,0,0,0,1.29,2.5c1.48,1.1,4.25,3.14,4.71,4.34,0,.92-3.51-.09-5.08-.92a11.82,11.82,0,0,1-3-2.78l.09.83a1.56,1.56,0,0,1-1-.46c-.46-.46.09-3.32.09-3.32Z" fill="#5167b0"/><path d="M141.33,273.37s4.8.76,7.91,11.18c1.86,6.9,4.56,7.52,7.68,8.14s16.21,0,17.24,0,2.29,2.29.84,3.95S155.46,300,151.93,300s-11.64-6.65-15-12.05S137,273,141.33,273.37Z" fill="url(#linear-gradient-15)"/><path d="M139.05,247.39s4.78,6.13,3.74,13-7.07,6.55-8.11,10.29,2.91,9.14-2.49,12.67-7.9,2.71-9.35,10.19-6.65,11.42-15.59,12.26-15.17-10-12.88-17.87,10.18-5.41,11.84-11.85,1-11.53,6.65-14,3.54-11.94,9.15-14.85S134.89,242.62,139.05,247.39Z" fill="#113c7a"/><path d="M126.6,271.29s-10.28,7.34-11.29,9.78-2.45,10.05.88,13.78c5.78,6.45,2.3,17.54,3.06,20.81s8.61,3.66,14.05,2.61,10.48-3.84,10.28-10.18,1.47-15.06,1.82-17.91A49.73,49.73,0,0,0,144,275.32c-.28-1-3.7-2.08-3.7-2.08S136.73,270.86,126.6,271.29Z" fill="url(#linear-gradient-16)"/><path d="M135.54,269.9a1,1,0,0,0,0,.33c.12.76.49,2.68.56,3.49s-.81,2.1-2.89,2.06-5.62-.91-6.79-3.39a59.43,59.43,0,0,0-.35-7.33Z" fill="#ff7c40"/><path d="M141.31,256.05c-1.11-6-5.83-9.34-11.17-8.09,0,0-5.79.58-8.36,5.66S123,263,125.4,265.68c1,1.1,1.79,2,2.28,2.5.18.21.35.41.53.6l.06.06h0a12.18,12.18,0,0,0,4.95,3c2.32.69,5.08.29,6.56-1.29S142.43,262,141.31,256.05Z" fill="#ff9d6f"/><path d="M142.27,260.07s-4.26.42-6.76-2.49-6,0-8.93-2.5a9.23,9.23,0,0,1,0,6.24,33.8,33.8,0,0,0-1.66,7.89l-5.41-8.52v-7.48l6.86-6.44,9.14-.41,4.37,4.15S142.68,257,142.27,260.07Z" fill="#113c7a"/><path d="M118.54,296.37l12.92,4.07,12-3.36c-.18.53-3.36,10.26-10.26,12-5,1.27-10.82-3.11-13.73-5.69a17.35,17.35,0,0,0-1.25-5.26Z" opacity="0.43" fill="url(#linear-gradient-17)" style="mix-blend-mode:multiply"/><path d="M119.11,284.19s-6.85-1.67-3.94,7.68,12.67,16.21,16.21,15.8,17.87-15.59,17.87-17.46a2.7,2.7,0,0,0-3.33-2.7c-1.66.42-12.67,12.26-13.71,11.85S124.73,288.13,119.11,284.19Z" fill="url(#linear-gradient-18)"/><path d="M147.3,290.9a2.07,2.07,0,0,1-1.38-2.64c.57-2.06,4.35-3.66,4.92-3.77s6.18,1,6.41,1.71-1,1-2.4.69a23.43,23.43,0,0,0-3.43-.46s1.48,1.6,1.37,2.29a4.35,4.35,0,0,1-2.06,2.63c-1.15.58-2.52-.68-2.52-.68Z" fill="#ff9d6f"/><path d="M172.44,293s4.53-3.85,4.78-3.17-1.54,2.61-1.54,2.61,6.06-2.32,6.13-1.54-3.2,3.26-4.07,3.85a22.35,22.35,0,0,1-4,1.42S172.09,293.9,172.44,293Z" fill="#ff9d6f"/><g opacity="0.57"><path d="M151.88,258.57a6,6,0,0,0-2.7,4.69l.18,63.71c0,4.06,2.89,5.72,6.41,3.69l37.95-21.91a6,6,0,0,0,2.7-4.69l-.18-63.71c0-4.06-2.9-5.72-6.41-3.69Z" fill="#1ae5ff"/></g><path d="M157.7,281.66a1.72,1.72,0,0,0-.8,1.39v3.38c0,.51.37.72.81.46L188.66,269a1.79,1.79,0,0,0,.8-1.4v-3.38c0-.51-.36-.71-.81-.46Z" fill="#fff"/><path d="M157.72,289a1.74,1.74,0,0,0-.8,1.39v3.39c0,.51.36.71.8.45l31-17.86a1.79,1.79,0,0,0,.8-1.39v-3.38c0-.52-.36-.72-.81-.46Z" fill="#fff"/><path d="M169.8,294.5a4.21,4.21,0,0,0-1.91,3.3v.78c0,1.21.86,1.7,1.91,1.09l10-5.78a4.19,4.19,0,0,0,1.91-3.3v-.77c0-1.21-.87-1.7-1.92-1.09Z" fill="#fff"/><path d="M151.51,108.54c2.8-1.62,4.62-.2,4.63,3.3a10.37,10.37,0,0,1-4.75,9c-2.71,1.56-4.62.25-4.63-3.33A10.53,10.53,0,0,1,151.51,108.54Zm0,11c2.1-1.21,3.29-4.12,3.28-6.79,0-2.34-1.08-4.18-3.29-2.9s-3.28,4.22-3.27,6.81,1.2,4.08,3.28,2.88" fill="#a0a9b0"/><polygon points="174.6 111.05 174.6 112.34 171.46 114.16 171.49 124.65 170.15 125.43 170.12 114.93 167 116.73 167 115.44 174.6 111.05" fill="#a0a9b0"/><path d="M167.37,99.57l0,11.79-1.34.77-3.27-4.1a18.64,18.64,0,0,1-1.93-2.83l-.05,0c.08,1.44.12,2.84.12,4.8l0,5-1.25.72,0-11.78,1.44-.83,3.31,4.06a16.91,16.91,0,0,1,1.85,2.77l0,0c-.13-1.5-.16-2.92-.17-4.75V100.3Z" fill="#a0a9b0"/><polygon points="172.83 96.42 172.86 106.92 177.24 104.39 177.25 105.67 171.54 108.97 171.51 97.18 172.83 96.42" fill="#a0a9b0"/><polygon points="181.84 91.22 181.88 103 180.55 103.77 180.51 91.98 181.84 91.22" fill="#a0a9b0"/><path d="M193.68,84.38l0,11.78-1.33.77-3.28-4.09A18.64,18.64,0,0,1,187.17,90l0,0c.08,1.45.11,2.85.12,4.8v5l-1.25.72,0-11.78,1.45-.84,3.3,4.07a15.66,15.66,0,0,1,1.85,2.76l0,0c-.13-1.5-.17-2.92-.17-4.75l0-4.93Z" fill="#a0a9b0"/><polygon points="203.36 78.79 203.36 80.07 199.15 82.5 199.16 86.23 203.15 83.93 203.15 85.18 199.16 87.48 199.18 91.73 203.62 89.17 203.62 90.44 197.86 93.77 197.82 81.99 203.36 78.79" fill="#a0a9b0"/><path d="M98.86,163.35a13.2,13.2,0,0,0,.8,2.78l-1.37.79a10.9,10.9,0,0,1-.69-2.42c-.31-1.45-.86-1.74-2.07-1.1l-1.25.72,0,5.11L93,170l0-11.63a20.74,20.74,0,0,1,2.54-1.72c1.42-.81,2.34-1,3-.75s.8.86.81,1.77a6,6,0,0,1-1.92,4.12v.06C98.14,161.69,98.61,162.27,98.86,163.35Zm-3.22-1.18A4.35,4.35,0,0,0,98,158.6c0-1.52-1-1.63-2.37-.83a7.33,7.33,0,0,0-1.31.89V163l1.36-.79" fill="#a0a9b0"/><polygon points="108.5 149.22 108.5 150.5 104.29 152.93 104.3 156.66 108.28 154.35 108.28 155.61 104.3 157.91 104.31 162.16 108.75 159.6 108.76 160.88 102.99 164.21 102.96 152.41 108.5 149.22" fill="#a0a9b0"/><path d="M117.22,144.06a6.23,6.23,0,0,1,2.56-.94l-.32,1.43a5.24,5.24,0,0,0-2.27.8,8.24,8.24,0,0,0-4.11,7.12c0,3,1.58,3.86,4,2.48a7.07,7.07,0,0,0,1.77-1.34V150.1l-2.09,1.2v-1.22l3.37-2,0,5.66a15.63,15.63,0,0,1-3.15,2.47c-1.55.89-2.83,1.18-3.84.66s-1.44-1.73-1.44-3.57A11.12,11.12,0,0,1,117.22,144.06Z" fill="#a0a9b0"/><polygon points="125.25 139.54 125.29 151.33 123.96 152.1 123.93 140.31 125.25 139.54" fill="#a0a9b0"/><path d="M132.41,135.22a4.17,4.17,0,0,1,2.26-.73l-.36,1.45a3.58,3.58,0,0,0-1.95.56,3.63,3.63,0,0,0-1.93,2.89c0,1.1.64,1.28,2,1.09,1.74-.23,2.63.22,2.63,2a6.66,6.66,0,0,1-3.58,5.48,4.7,4.7,0,0,1-2.62.75l.33-1.47a4.39,4.39,0,0,0,4.51-3.85c0-1.1-.55-1.41-1.93-1.23-1.68.28-2.72-.11-2.73-1.77A6.41,6.41,0,0,1,132.41,135.22Z" fill="#a0a9b0"/><polygon points="145.14 128.06 145.15 129.35 142.01 131.16 142.04 141.66 140.7 142.43 140.67 131.93 137.56 133.73 137.55 132.44 145.14 128.06" fill="#a0a9b0"/><path d="M154,131.5a13.2,13.2,0,0,0,.8,2.78l-1.37.79a10.87,10.87,0,0,1-.69-2.43c-.31-1.45-.87-1.74-2.07-1.1l-1.24.72v5.11l-1.32.76,0-11.62a20.74,20.74,0,0,1,2.54-1.72c1.42-.82,2.33-1.05,3-.75s.81.86.82,1.77a6,6,0,0,1-1.92,4.12v0C153.31,129.84,153.78,130.41,154,131.5Zm-3.22-1.18a4.31,4.31,0,0,0,2.3-3.57c0-1.52-1-1.63-2.36-.84a8.61,8.61,0,0,0-1.31.89l0,4.3,1.35-.78" fill="#a0a9b0"/><path d="M162.51,118,166,127.8l-1.41.82-1.11-3.08-3.64,2.1-1,4.32-1.37.8L160.91,119Zm-2.36,8.26,3.09-1.78-1-2.81c-.23-.64-.39-1.25-.54-1.84h0c-.15.79-.31,1.6-.51,2.43l-1,4" fill="#a0a9b0"/><polygon points="178.89 108.58 178.92 120.37 177.6 121.13 177.56 109.34 178.89 108.58" fill="#a0a9b0"/><path d="M187.18,103.6c2.8-1.62,4.62-.2,4.63,3.3a10.37,10.37,0,0,1-4.75,9c-2.71,1.56-4.62.24-4.63-3.32A10.55,10.55,0,0,1,187.18,103.6Zm-.05,11c2.1-1.21,3.29-4.12,3.28-6.8,0-2.34-1.08-4.17-3.28-2.9s-3.29,4.22-3.28,6.81,1.2,4.09,3.28,2.89" fill="#a0a9b0"/><path d="M203,94.63l0,11.79-1.34.77-3.27-4.1a18.64,18.64,0,0,1-1.93-2.83l0,0c.08,1.45.11,2.85.11,4.81l0,5-1.25.72,0-11.79,1.44-.84,3.31,4.07a16.63,16.63,0,0,1,1.85,2.76l0,0c-.12-1.51-.16-2.92-.16-4.76l0-4.93Z" fill="#a0a9b0"/></g><g id="DESIGNED_BY_FREEPIK" data-name="DESIGNED BY FREEPIK"><path d="M261.44,464.89a8.25,8.25,0,0,0-1.25,1.65l-.53-.28a.69.69,0,0,0-.75-.52.68.68,0,0,0,.16,1.35.47.47,0,0,0,.21-.06l.51.27a8.49,8.49,0,0,0-.61,2l.85.15a7.46,7.46,0,0,1,2-3.93Z" fill="#392836"/><path d="M267.66,462.29h-.58l-.08-.7a.84.84,0,0,0,.3-.73.82.82,0,1,0-1.16.82l.09.71a8.83,8.83,0,0,0-2.34.73l.37.78a7.87,7.87,0,0,1,5.07-.59l.18-.84A8.87,8.87,0,0,0,267.66,462.29Z" fill="#392836"/><path d="M275.13,465.17a.68.68,0,1,0-.76-.67l-.47.41a9.13,9.13,0,0,0-1.6-1.29l-.46.73a7.64,7.64,0,0,1,2.91,3.31l.78-.35a8.2,8.2,0,0,0-1.07-1.75l.46-.4A.5.5,0,0,0,275.13,465.17Z" fill="#392836"/><path d="M267,473.85l-1.31,0a17.52,17.52,0,0,1-2.81-.2,9.24,9.24,0,0,1-1.44-.33,7,7,0,0,0,12.84-1.56,11,11,0,0,1-2.78,1.27A19.37,19.37,0,0,1,267,473.85Z" fill="#392836"/><path d="M267.66,464a6.82,6.82,0,0,0-6.89,6.73,6.27,6.27,0,0,0,.16,1.43c.76.55,3.06,1,6.05.83,3.26-.2,6-1.09,7.56-2.45,0-.22,0-.44-.05-.65A6.84,6.84,0,0,0,267.66,464Zm-2.45,7.38a2.1,2.1,0,1,1,2.1-2.1A2.1,2.1,0,0,1,265.21,471.38Zm5.37-1a1.54,1.54,0,1,1,1.54-1.54A1.54,1.54,0,0,1,270.58,470.35Z" fill="#392836"/><path d="M285.78,466.12a3.23,3.23,0,0,0-1.57-.27c-.62.08-.95.38-.95,1.14v1h2.52v1.94h-2.52v6.18h-2.19v-6.18h-1.52V468h1.52v-1c0-1.9,1-3.15,2.91-3.15a4.47,4.47,0,0,1,1.8.35Z" fill="#392836"/><path d="M291.1,469.89a4,4,0,0,0-.59-.05,1.62,1.62,0,0,0-1.71,1.82v4.43h-2.19V468h2.12v.89a2.55,2.55,0,0,1,2.29-1.11,2,2,0,0,1,1.24.38Z" fill="#392836"/><path d="M299.79,472a5.12,5.12,0,0,1-.05.73H294a2,2,0,0,0,2.08,1.69,3.32,3.32,0,0,0,2.06-.78l1.28,1.41A5,5,0,0,1,296,476.3a4.28,4.28,0,0,1-.11-8.55C298.18,467.75,299.78,469.49,299.79,472Zm-5.8-.76h3.6a1.75,1.75,0,0,0-1.77-1.62A1.78,1.78,0,0,0,294,471.26Z" fill="#392836"/><path d="M308.45,472a5.25,5.25,0,0,1,0,.73h-5.76a2,2,0,0,0,2.09,1.69,3.3,3.3,0,0,0,2.05-.78l1.29,1.41a5,5,0,0,1-3.47,1.23,4.28,4.28,0,0,1-.11-8.55C306.84,467.75,308.44,469.49,308.45,472Zm-5.79-.76h3.6a1.75,1.75,0,0,0-1.77-1.62A1.77,1.77,0,0,0,302.66,471.26Z" fill="#392836"/><path d="M317.9,472A4,4,0,0,1,314,476.3a3,3,0,0,1-2.39-1.06v4.2H309.4V468h2.14v.9a2.93,2.93,0,0,1,2.42-1.12A4,4,0,0,1,317.9,472Zm-6.43,0a2.1,2.1,0,1,0,2.09-2.23A2.09,2.09,0,0,0,311.47,472Z" fill="#392836"/><path d="M321.42,465.31a1.4,1.4,0,1,1-1.4-1.41A1.39,1.39,0,0,1,321.42,465.31Zm-.3,10.78h-2.18V468h2.18Z" fill="#392836"/><path d="M324.77,470.86l3.06-2.89h2.69l-3.94,3.82,4,4.3h-2.69l-3.08-3.29v3.29h-2.18V464h2.18Z" fill="#392836"/><path d="M175.73,476v-1.2a3.4,3.4,0,0,1-2.71,1.4c-2.09,0-3.56-1.6-3.56-4.2s1.46-4.21,3.56-4.21a3.36,3.36,0,0,1,2.71,1.41V465H177V476Zm0-2.18v-3.63a3,3,0,0,0-2.41-1.29c-1.61,0-2.57,1.32-2.57,3.1s1,3.08,2.57,3.08A3,3,0,0,0,175.73,473.84Z" fill="#392836"/><path d="M178.58,472a4,4,0,0,1,3.95-4.19c2.42,0,3.85,1.89,3.85,4.29v.32h-6.49a2.82,2.82,0,0,0,2.89,2.77,3.53,3.53,0,0,0,2.47-1l.6.81a4.4,4.4,0,0,1-3.19,1.23A4,4,0,0,1,178.58,472Zm3.93-3.17a2.68,2.68,0,0,0-2.62,2.67h5.26A2.6,2.6,0,0,0,182.51,468.83Z" fill="#392836"/><path d="M187.27,475l.65-.89a3.64,3.64,0,0,0,2.64,1.14c1.22,0,1.89-.58,1.89-1.37,0-1.94-5-.75-5-3.72,0-1.24,1.08-2.3,3-2.3a4,4,0,0,1,3,1.16l-.58.86a3.12,3.12,0,0,0-2.39-1c-1.09,0-1.77.54-1.77,1.26,0,1.76,5,.6,5,3.71,0,1.35-1.08,2.43-3.15,2.43A4.26,4.26,0,0,1,187.27,475Z" fill="#392836"/><path d="M195.05,466a.84.84,0,1,1,1.68,0,.84.84,0,0,1-1.68,0Zm.22,10v-8h1.24v8Z" fill="#392836"/><path d="M198.57,478.07l.63-.93a3,3,0,0,0,2.6,1.1,2.29,2.29,0,0,0,2.57-2.41v-1.14a3.34,3.34,0,0,1-2.68,1.43c-2.09,0-3.57-1.56-3.57-4.15s1.46-4.16,3.57-4.16a3.29,3.29,0,0,1,2.68,1.41V468h1.25v7.78c0,2.66-1.86,3.49-3.82,3.49A4.08,4.08,0,0,1,198.57,478.07Zm5.8-4.36v-3.5a2.93,2.93,0,0,0-2.38-1.29c-1.61,0-2.58,1.27-2.58,3.05s1,3,2.58,3A3,3,0,0,0,204.37,473.71Z" fill="#392836"/><path d="M213.1,476v-5.25c0-1.41-.71-1.85-1.79-1.85a3.07,3.07,0,0,0-2.37,1.24V476h-1.25v-8h1.25v1.17a3.92,3.92,0,0,1,2.85-1.36,2.27,2.27,0,0,1,2.55,2.58V476Z" fill="#392836"/><path d="M216,472a4,4,0,0,1,4-4.19c2.42,0,3.85,1.89,3.85,4.29v.32h-6.49a2.82,2.82,0,0,0,2.89,2.77,3.53,3.53,0,0,0,2.47-1l.6.81a4.4,4.4,0,0,1-3.19,1.23A4,4,0,0,1,216,472Zm3.93-3.17a2.68,2.68,0,0,0-2.62,2.67h5.26A2.6,2.6,0,0,0,219.88,468.83Z" fill="#392836"/><path d="M231.15,476v-1.2a3.4,3.4,0,0,1-2.71,1.4c-2.09,0-3.56-1.6-3.56-4.2s1.46-4.21,3.56-4.21a3.36,3.36,0,0,1,2.71,1.41V465h1.24V476Zm0-2.18v-3.63a3,3,0,0,0-2.41-1.29c-1.61,0-2.57,1.32-2.57,3.1s1,3.08,2.57,3.08A3,3,0,0,0,231.15,473.84Z" fill="#392836"/><path d="M238.33,476V465h1.24v4.27a3.33,3.33,0,0,1,2.71-1.41c2.08,0,3.56,1.65,3.56,4.21s-1.48,4.2-3.56,4.2a3.4,3.4,0,0,1-2.71-1.4V476Zm3.63-.92c1.63,0,2.59-1.31,2.59-3.08s-1-3.1-2.59-3.1a3,3,0,0,0-2.39,1.29v3.63A2.94,2.94,0,0,0,242,475.1Z" fill="#392836"/><path d="M247.2,478a1.76,1.76,0,0,0,.68.14,1.17,1.17,0,0,0,1.2-.85l.53-1.21-3.35-8.1h1.34l2.67,6.57,2.65-6.57h1.36l-4,9.64a2.39,2.39,0,0,1-2.36,1.63,3.84,3.84,0,0,1-.91-.12Z" fill="#392836"/></g></g></svg>